<?xml version="1.0" standalone="no"?>
<!DOCTYPE svg PUBLIC "-//W3C//DTD SVG 20010904//EN"
 "http://www.w3.org/TR/2001/REC-SVG-20010904/DTD/svg10.dtd">
<svg version="1.0" xmlns="http://www.w3.org/2000/svg"
 width="300.000000pt" height="300.000000pt" viewBox="0 0 300.000000 300.000000"
 preserveAspectRatio="xMidYMid meet">
<metadata>
Created by potrace 1.10, written by Peter Selinger 2001-2011
</metadata>
<g transform="translate(0.000000,300.000000) scale(0.100000,-0.100000)"
fill="#DFFF00" stroke="none">
<path d="M955 2553 c-48 -12 -183 -82 -212 -110 -18 -17 -33 -29 -33 -27 0 19
-106 -112 -125 -155 -34 -72 -27 -74 10 -3 35 68 130 163 211 212 32 19 94 47
139 62 68 23 75 37 10 21z"/>
<path d="M940 2517 c-86 -31 -103 -40 -187 -104 -70 -53 -108 -94 -132 -143
l-12 -25 20 25 c69 84 103 117 163 156 37 24 79 49 95 55 15 7 42 18 60 25 17
8 38 14 46 14 9 0 19 5 22 10 9 14 -2 12 -75 -13z"/>
<path d="M1648 2435 c166 -78 262 -180 314 -335 l18 -55 -6 44 c-11 77 -60
168 -122 227 -59 56 -172 123 -232 138 -14 3 -1 -5 28 -19z"/>
<path d="M1620 2420 c14 -11 34 -23 44 -26 27 -9 119 -74 129 -91 4 -7 13 -13
19 -13 24 0 92 -111 134 -220 l14 -35 -6 35 c-9 56 -58 151 -103 202 -43 49
-147 121 -216 151 l-40 18 25 -21z"/>
<path d="M1216 2274 c21 -71 18 -182 -8 -261 -18 -55 -33 -79 -81 -127 -53
-53 -56 -58 -30 -53 15 3 37 9 47 13 16 6 18 4 11 -12 -14 -32 -18 -295 -6
-356 22 -102 78 -114 100 -21 6 27 12 135 14 240 2 167 4 193 18 193 32 0 120
53 149 90 66 83 105 219 86 296 -10 40 -22 15 -30 -65 -12 -124 -83 -232 -183
-277 -28 -12 -55 -29 -60 -36 -4 -7 -10 -103 -13 -213 -3 -119 -10 -208 -16
-219 -11 -18 -12 -18 -25 5 -15 29 -21 208 -9 293 5 34 5 69 -1 83 -7 19 -5
31 12 55 37 51 69 157 69 229 0 71 -22 160 -44 178 -12 10 -12 6 0 -35z"/>
<path d="M1522 2300 c26 -40 48 -129 48 -190 0 -91 -25 -158 -80 -212 -26 -27
-42 -48 -36 -48 28 0 144 45 179 69 75 52 120 195 94 296 l-7 30 29 -35 c82
-96 121 -224 121 -394 -1 -61 -7 -212 -14 -336 -15 -252 -26 -296 -93 -384
-85 -111 -195 -152 -391 -144 -132 6 -259 40 -311 83 -16 14 -34 25 -39 25
-20 0 -24 21 -9 43 19 29 57 145 57 173 0 34 -10 54 -29 54 -9 0 -22 9 -29 20
-18 30 -36 25 -92 -25 -28 -25 -55 -45 -60 -45 -13 0 -23 122 -15 187 14 117
60 254 140 413 46 92 89 218 83 246 -4 21 -11 8 -72 -136 -24 -58 -60 -139
-78 -180 -85 -186 -108 -276 -108 -425 l0 -104 -53 -34 c-63 -40 -101 -83
-117 -132 -10 -30 -16 -35 -41 -35 -19 0 -40 -10 -56 -26 -25 -25 -25 -30 -20
-106 l5 -80 -30 -16 c-47 -26 -131 -107 -127 -121 3 -9 19 -1 48 23 52 43 130
91 137 83 3 -3 2 -32 -2 -66 -6 -57 -8 -60 -27 -50 -25 14 -91 14 -114 0 -15
-9 -13 -10 15 -11 17 0 32 -4 32 -9 0 -18 -68 -84 -79 -77 -16 10 -14 -1 6
-31 17 -26 17 -27 0 -20 -9 3 -17 2 -17 -3 0 -6 9 -10 19 -10 11 0 22 -4 25
-9 3 -4 28 -11 56 -15 32 -4 50 -11 50 -20 0 -9 7 -12 19 -9 11 3 21 -2 24
-11 4 -9 1 -16 -4 -16 -7 0 -9 -9 -6 -23 l6 -22 -17 22 c-16 19 -22 20 -76 13
-51 -8 -62 -6 -73 8 -11 16 -12 15 -14 -3 -1 -11 -1 -23 0 -28 1 -4 -8 -2 -19
5 -11 7 -20 20 -20 28 0 9 -9 15 -25 15 -32 0 -32 -15 0 -45 26 -24 47 -27
137 -15 75 10 108 -9 108 -60 0 -53 -25 -71 -108 -78 -69 -6 -152 -37 -152
-57 0 -6 -3 -10 -8 -10 -4 0 -7 12 -8 28 -2 206 -4 227 -19 208 -10 -14 -15
-45 -15 -96 0 -101 13 -138 56 -156 45 -19 51 -18 25 5 -18 16 -19 20 -5 25
26 10 34 7 44 -16 8 -22 9 -22 9 -2 1 27 42 45 81 38 30 -6 43 9 18 19 -9 4
-8 6 2 6 9 1 26 -6 38 -15 19 -13 22 -13 22 -1 0 16 27 30 41 21 5 -3 9 -18 9
-35 0 -20 5 -29 17 -29 9 0 13 -3 10 -7 -4 -3 -2 -11 3 -18 7 -8 5 -12 -5 -12
-8 0 -15 6 -15 14 0 7 -5 13 -11 13 -6 0 -9 -7 -5 -15 8 -23 -37 -49 -63 -36
-25 14 -42 14 -18 0 14 -8 15 -14 7 -24 -12 -15 -44 -9 -34 6 3 5 0 9 -5 9 -6
0 -11 -6 -11 -14 0 -18 -64 -56 -95 -56 -13 0 -26 -4 -29 -9 -3 -4 6 -6 19 -3
21 4 25 1 25 -22 0 -18 -4 -24 -15 -20 -18 7 -20 -7 -3 -24 19 -19 38 -14 38
12 0 35 45 73 108 91 32 9 72 25 90 35 32 19 32 19 32 -2 0 -31 22 -150 26
-145 3 2 -5 76 -16 163 -11 87 -20 162 -20 167 0 4 -5 7 -11 7 -6 0 -8 -7 -5
-16 5 -13 4 -14 -7 -6 -8 7 -16 11 -18 9 -2 -1 4 5 15 14 13 12 17 23 13 41
-5 20 -2 27 15 35 19 8 20 10 4 16 -10 4 -15 3 -11 -3 3 -6 2 -10 -4 -10 -10
0 -31 61 -31 93 0 20 26 23 33 3 4 -9 14 -12 28 -9 28 8 49 -19 49 -64 0 -25
4 -31 15 -27 20 8 45 -13 45 -37 0 -11 8 -20 18 -21 9 0 23 -2 31 -2 8 -1 16
-7 19 -15 3 -10 0 -12 -11 -8 -9 3 -19 2 -22 -2 -8 -15 -74 -10 -90 6 -8 8
-15 24 -15 35 0 16 -3 18 -14 9 -11 -9 -18 -8 -32 6 -11 12 -16 13 -13 4 3 -8
13 -19 23 -25 10 -6 31 -24 47 -39 25 -24 29 -36 29 -80 -1 -48 -2 -50 -15
-33 -13 17 -15 18 -15 3 0 -9 5 -17 10 -17 6 0 10 -21 11 -47 0 -27 0 -61 1
-76 0 -16 -9 -39 -23 -54 l-24 -26 25 16 c31 21 74 22 95 1 9 -9 18 -14 21
-11 11 11 -29 37 -57 37 -19 0 -29 5 -29 15 0 12 7 14 28 8 l27 -6 -29 24 -28
25 8 105 c11 133 29 130 29 -6 0 -93 1 -100 23 -111 12 -6 34 -22 47 -34 21
-20 25 -21 31 -7 3 9 21 25 40 36 40 24 45 56 15 105 -11 17 -29 56 -41 88
-24 64 -37 77 -83 88 l-32 7 29 12 c33 13 62 7 94 -22 12 -11 22 -16 22 -10 0
14 -31 39 -60 48 l-25 8 24 9 c13 4 33 6 44 2 14 -4 17 -3 12 6 -9 15 12 30
43 30 13 0 22 -6 22 -15 0 -8 -7 -15 -17 -15 -15 0 -15 -1 0 -18 24 -26 49
-92 43 -109 -10 -26 12 -85 64 -173 28 -47 48 -90 46 -96 -5 -13 11 -41 19
-32 9 9 -24 85 -68 158 -33 52 -41 78 -46 132 -5 46 -14 77 -28 96 -15 21 -19
32 -11 40 17 17 1 42 -27 42 -14 0 -59 -18 -99 -39 -69 -38 -73 -39 -84 -20
-7 10 -21 19 -32 19 -15 0 -20 7 -20 29 0 32 -43 76 -67 67 -7 -3 -15 -1 -18
4 -4 6 -15 10 -26 10 -22 0 -23 7 -24 220 0 74 -5 163 -9 197 -7 46 -5 67 4
78 19 23 47 18 66 -10 14 -22 15 -35 6 -98 -21 -134 -31 -262 -23 -302 5 -30
9 -1 15 110 4 82 10 152 12 155 3 3 10 -3 15 -13 16 -28 37 -19 48 20 17 60
14 83 -9 83 -14 0 -26 -11 -36 -32 -12 -26 -14 -28 -10 -8 2 14 8 52 11 85 13
118 40 148 215 248 25 14 56 37 69 51 26 27 55 34 67 15 9 -16 -69 -93 -152
-150 -99 -67 -119 -108 -117 -242 1 -124 13 -139 49 -64 16 31 24 60 20 64 -4
4 -12 0 -17 -10 -13 -23 -32 -22 -24 2 3 11 1 22 -5 26 -5 3 -10 -2 -10 -11 0
-10 -2 -15 -5 -12 -11 10 16 135 35 166 10 17 52 53 92 80 40 28 91 68 113 91
21 23 45 41 53 41 25 0 9 -82 -26 -132 -32 -47 -106 -103 -122 -93 -6 3 -10
-3 -10 -13 0 -11 -13 -46 -30 -77 -16 -31 -30 -64 -30 -74 1 -9 14 11 29 45
31 66 70 104 108 104 29 0 73 -41 73 -69 0 -20 -32 -37 -50 -26 -5 3 -10 -1
-10 -10 0 -8 -12 -34 -27 -56 -40 -61 -37 -149 5 -149 19 0 66 86 56 102 -9
14 -46 9 -66 -9 -29 -26 -21 2 15 49 63 83 141 101 167 38 19 -46 7 -124 -33
-215 -34 -77 -58 -107 -73 -92 -10 9 25 136 46 167 30 45 32 50 15 50 -9 0
-13 -4 -10 -10 3 -5 2 -10 -4 -10 -20 0 -61 -152 -61 -226 0 -130 134 -614
169 -614 13 0 15 42 2 56 -16 18 -71 211 -71 252 0 28 26 -18 34 -60 6 -35 44
-134 81 -211 11 -23 24 -37 36 -37 23 0 23 4 5 33 -15 23 -96 225 -96 239 0 4
8 8 18 8 55 0 90 118 44 148 -17 11 -18 17 -9 43 11 27 9 32 -13 49 -33 25
-71 25 -104 -1 l-26 -20 0 35 c0 25 4 34 13 30 19 -7 31 11 52 74 12 39 20 51
28 43 6 -6 14 -11 18 -11 10 0 5 40 -6 48 -6 4 -10 36 -10 72 0 36 -3 75 -8
86 -7 21 -6 21 45 12 29 -6 90 -8 136 -6 l83 4 15 -28 c34 -65 126 -85 257
-54 31 7 57 9 57 5 0 -5 7 -9 15 -9 9 0 15 -9 15 -23 0 -31 18 -47 54 -47 25
0 34 -7 46 -32 18 -38 57 -52 92 -32 12 7 33 18 46 23 12 6 22 15 22 20 0 6
16 1 35 -10 39 -23 43 -34 17 -48 -11 -6 -30 -5 -55 4 -41 14 -49 4 -15 -19
31 -22 74 -20 90 3 13 18 14 18 39 -3 22 -17 35 -52 73 -186 26 -91 51 -177
56 -191 7 -23 5 -26 -9 -22 -10 2 -23 -3 -31 -11 -10 -13 -16 -14 -27 -4 -12
10 -17 9 -27 -2 -6 -8 -23 -21 -38 -29 -25 -13 -30 -11 -93 35 -59 44 -68 54
-86 109 -15 47 -19 52 -15 22 3 -20 3 -37 1 -37 -10 0 -34 59 -31 76 2 11 1
12 -2 4 -3 -8 -11 7 -18 35 l-13 50 5 -45 c5 -52 46 -136 63 -132 7 1 10 -2 7
-7 -7 -11 54 -66 135 -121 99 -67 132 -96 159 -140 14 -22 31 -40 38 -40 10 0
9 5 -2 23 -21 31 -48 109 -40 116 3 3 17 -7 30 -22 13 -15 24 -24 24 -18 0 5
-7 16 -15 24 -8 8 -11 18 -7 22 4 5 1 5 -5 1 -7 -4 -13 -3 -13 2 0 5 -11 7
-25 4 -29 -5 -31 0 -9 22 21 21 26 20 59 -10 25 -23 30 -37 35 -98 7 -66 7
-62 10 54 2 69 4 130 5 135 2 6 3 29 4 52 l1 43 63 -46 c34 -26 61 -52 61 -58
-1 -6 -3 -15 -4 -21 -1 -5 -2 -21 -1 -34 l1 -23 20 23 c17 21 19 22 20 6 0
-27 -19 -59 -32 -51 -6 4 -8 -1 -5 -12 3 -11 11 -45 18 -77 12 -55 13 -57 25
-35 15 28 27 27 36 -4 6 -22 6 -22 7 4 1 15 -4 30 -9 33 -6 4 -8 10 -6 14 3 4
-1 25 -9 47 -8 21 -14 53 -14 69 l1 30 10 -35 c12 -45 21 -53 47 -45 24 7 28
42 9 78 -27 53 -27 55 -5 84 12 15 27 32 34 36 7 4 13 14 13 21 0 8 7 16 15
20 18 6 20 -5 4 -21 -20 -20 0 -31 44 -27 l42 5 -40 -15 c-22 -8 -51 -27 -63
-42 -23 -26 -23 -32 -17 -116 5 -62 4 -88 -4 -88 -6 0 -11 -5 -11 -12 0 -9 3
-9 12 0 19 19 49 15 41 -5 -6 -16 -5 -16 10 -5 9 8 22 12 29 9 7 -2 25 0 41 4
25 7 27 5 27 -21 0 -28 15 -48 28 -36 8 9 3 93 -8 136 -5 19 -14 73 -19 120
-6 47 -22 132 -36 190 -14 58 -40 170 -59 250 -47 196 -66 321 -61 405 7 132
-26 195 -104 195 -33 0 -43 7 -85 56 -29 33 -66 63 -92 75 -24 10 -64 28 -89
39 -56 25 -60 25 -85 0 -27 -27 -25 -68 6 -113 l25 -38 -38 16 c-50 21 -72 42
-95 90 l-19 40 6 -40 c12 -71 25 -88 108 -129 80 -40 95 -54 153 -146 25 -39
34 -64 32 -85 -3 -29 -2 -31 27 -26 26 5 27 6 7 9 -24 4 -24 -3 -6 107 4 31
-1 44 -38 94 -23 32 -64 72 -91 90 -31 20 -54 45 -63 68 -23 54 -6 62 58 30
29 -15 59 -27 66 -27 30 0 73 -33 116 -91 25 -33 46 -64 46 -68 0 -4 -16 -15
-35 -24 -26 -13 -35 -23 -35 -42 0 -28 37 -49 65 -39 22 9 21 -79 -1 -100 -13
-14 -13 -16 -1 -16 9 0 24 -3 34 -6 13 -4 14 -3 5 3 -9 7 -12 29 -10 69 2 48
6 59 23 64 11 3 21 11 23 18 2 9 -6 9 -29 -3 -38 -20 -94 -16 -94 6 0 22 90
89 120 89 43 0 55 -33 55 -157 0 -120 16 -221 74 -453 26 -104 31 -138 22
-149 -8 -11 -8 -13 1 -8 6 4 14 3 18 -3 3 -5 -3 -10 -15 -10 -11 0 -23 -8 -27
-18 -8 -21 -57 -86 -98 -129 -28 -30 -32 -31 -55 -18 -14 8 -32 17 -40 21 -27
14 -52 39 -61 62 -5 12 -13 22 -19 22 -6 0 -3 -11 5 -24 9 -14 15 -37 12 -53
-4 -27 -5 -27 -12 -6 -4 13 -12 20 -18 16 -6 -4 -8 10 -5 42 6 51 -11 85 -93
185 -20 25 -55 81 -77 125 -23 44 -61 102 -86 130 -25 27 -46 52 -46 56 0 15
31 38 58 44 54 11 77 -7 96 -75 10 -34 19 -60 22 -58 8 9 -39 165 -73 239 -32
71 -40 81 -96 115 -34 21 -77 52 -97 70 -19 17 -50 39 -67 48 -28 14 -33 22
-33 53 l0 36 37 -36 c20 -20 40 -37 44 -37 4 0 34 -23 65 -50 32 -28 75 -55
98 -62 23 -6 47 -16 53 -21 15 -11 69 -128 65 -139 -3 -10 7 -9 33 2 17 7 17
9 3 9 -12 1 -29 25 -51 67 -34 71 -37 73 -108 98 -25 9 -63 33 -85 52 -21 20
-57 49 -79 64 -45 31 -82 89 -72 114 10 25 29 19 91 -29 75 -58 87 -58 74 -2
-6 23 -15 47 -21 52 -6 7 -7 2 -2 -12 3 -13 3 -23 -2 -23 -12 0 -96 59 -105
73 -4 7 -5 39 -1 72 3 33 6 128 7 210 1 167 -15 257 -61 352 -25 51 -91 123
-113 123 -16 0 -29 -35 -31 -89 -3 -55 -18 -81 -20 -34 -1 15 -5 0 -9 -34 -7
-65 -36 -143 -52 -143 -5 0 -6 6 -3 13 4 6 -2 1 -13 -13 -28 -34 -36 -21 -16
28 12 31 15 65 12 139 -4 108 -24 163 -67 192 l-25 16 16 -25z m424 -1093 c21
-18 56 -45 76 -60 51 -37 54 -61 24 -148 -15 -45 -19 -66 -10 -54 17 22 44
108 44 139 0 12 5 28 11 36 7 11 8 3 4 -30 -9 -64 -24 -109 -52 -158 -14 -25
-22 -50 -18 -62 5 -17 3 -18 -27 -9 -54 15 -137 10 -272 -16 -149 -29 -162
-30 -208 -10 -32 13 -76 61 -65 71 2 3 30 9 62 14 167 27 265 102 331 254 18
42 34 66 44 66 9 0 34 -15 56 -33z m184 -186 c16 -30 12 -41 -14 -41 -18 0
-23 5 -21 18 2 9 4 23 4 30 1 18 19 14 31 -7z m-1449 -121 c-7 -20 -10 -22
-15 -9 -4 8 -1 29 5 45 11 25 13 26 16 9 2 -12 0 -32 -6 -45z m294 -57 c-4
-10 -10 -26 -12 -35 -3 -10 -9 -18 -14 -18 -13 0 -11 44 3 58 18 18 31 15 23
-5z m1056 -35 c58 -34 142 -139 125 -155 -11 -12 -46 30 -41 48 4 13 1 16 -12
13 -11 -3 -27 3 -37 15 -19 21 -19 21 -33 1 -8 -11 -23 -20 -33 -20 -24 0 -53
29 -46 46 6 17 1 17 -25 3 -42 -22 -81 18 -43 45 12 9 7 11 -25 8 -38 -4 -51
5 -33 22 4 5 41 6 83 4 59 -4 87 -11 120 -30z m-217 7 c3 -8 14 -15 25 -15 25
0 35 -47 12 -53 -9 -2 -27 0 -40 5 -18 6 -22 14 -19 33 4 20 1 25 -16 25 -17
0 -18 2 -6 10 22 14 37 12 44 -5z m136 -91 c0 -8 7 -17 15 -20 22 -9 8 -24
-21 -24 -36 0 -64 17 -64 39 0 15 8 19 35 19 24 0 35 -5 35 -14z m-1440 -49
c0 -9 -9 -15 -25 -15 -18 0 -23 4 -19 15 4 8 15 15 25 15 10 0 19 -7 19 -15z
m559 -81 c-12 -13 -26 -24 -31 -24 -16 0 -7 25 20 53 22 23 28 25 30 12 2 -9
-6 -28 -19 -41z m-552 19 c31 -13 43 -24 43 -39 0 -20 -2 -20 -72 -8 -40 7
-74 13 -75 14 -11 1 0 31 15 39 24 15 41 13 89 -6z m1783 -137 c21 -45 28
-160 11 -171 -14 -8 -77 201 -72 239 2 17 40 -26 61 -68z m-1103 32 c12 -10
12 -14 -2 -27 -12 -12 -19 -13 -34 -4 -10 7 -22 9 -25 6 -15 -16 -3 -32 32
-44 51 -16 62 -27 62 -62 0 -63 -74 -94 -99 -41 -14 32 -7 42 20 26 16 -10 20
-10 26 4 7 19 -12 34 -45 34 -17 0 -27 9 -38 35 -19 45 -18 50 9 75 23 23 66
22 94 -2z m1503 -79 c9 -17 8 -23 -7 -35 -25 -19 -32 -17 -26 6 3 11 9 20 14
20 5 0 9 5 9 12 0 9 -3 9 -12 0 -14 -14 -48 -16 -48 -3 0 26 57 26 70 0z m-42
-31 c-3 -7 -20 -14 -39 -16 -32 -2 -33 -1 -15 13 24 18 59 20 54 3z m57 -29
c8 -25 8 -25 -33 -32 -30 -6 -32 -5 -22 13 6 11 18 20 26 20 8 0 12 5 9 10 -3
6 -2 10 4 10 5 0 13 -9 16 -21z m-282 -44 c2 -14 1 -25 -4 -25 -11 0 -29 34
-29 56 0 25 27 0 33 -31z m187 30 c0 -10 -10 -15 -32 -15 -31 1 -32 1 -14 15
25 19 46 19 46 0z m-150 -56 c0 -11 -4 -19 -10 -19 -5 0 -10 6 -10 14 0 8 -3
23 -7 33 -6 16 -5 16 10 4 9 -7 17 -22 17 -32z m120 22 c0 -11 -25 -21 -53
-21 -22 1 -22 1 -3 15 22 17 56 20 56 6z m-87 -18 c4 -3 1 -13 -6 -21 -10 -13
-9 -14 10 -4 31 17 36 15 51 -15 16 -35 15 -45 -3 -69 -15 -18 -15 -16 -9 25
l6 44 -31 -5 c-30 -4 -41 5 -41 38 0 15 12 19 23 7z m229 -10 c0 -10 2 -29 3
-43 2 -14 6 -33 10 -42 4 -11 3 -18 -4 -18 -6 0 -11 -10 -10 -22 0 -21 1 -22
8 -3 6 14 9 7 14 -30 8 -56 1 -65 -54 -65 l-37 0 -12 81 c-9 61 -9 88 0 109
17 42 79 67 82 33z m-1892 -30 c6 -16 19 -44 30 -64 24 -45 25 -57 3 -81 -42
-46 -85 -6 -83 78 1 33 4 67 7 77 7 26 32 20 43 -10z m1697 -33 c4 -13 3 -13
-6 0 -6 8 -11 10 -11 5 0 -15 -38 -36 -45 -26 -8 13 25 43 43 39 8 -2 17 -10
19 -18z m-250 -12 c6 -7 13 -21 16 -31 6 -16 5 -16 -19 0 -22 14 -29 14 -46 4
-17 -11 -23 -10 -36 3 -9 8 -13 18 -10 21 3 3 13 -1 21 -10 15 -14 17 -14 27
5 12 23 33 26 47 8z m303 -39 c0 -11 -7 -19 -16 -19 -9 0 -12 -5 -8 -12 5 -10
4 -10 -5 -2 -9 8 -9 17 0 37 13 29 29 27 29 -4z m-408 4 c-6 -2 -10 -9 -6 -14
3 -5 -4 -9 -15 -9 -21 0 -27 11 -14 23 3 4 16 7 27 6 12 0 15 -3 8 -6z m33
-23 c-4 -6 1 -22 10 -36 9 -14 14 -28 12 -31 -3 -2 -10 5 -17 16 -6 12 -17 21
-25 21 -15 0 -20 21 -8 33 11 11 35 8 28 -3z m305 -22 c-1 -7 -7 -24 -15 -38
l-14 -25 -1 31 c0 17 3 34 7 37 10 11 23 8 23 -5z m6 -73 c-7 -28 -26 -34 -26
-9 0 8 5 25 12 37 14 26 23 8 14 -28z"/>
<path d="M2674 235 c-7 -18 3 -35 21 -35 15 0 28 27 19 41 -8 14 -34 11 -40
-6z"/>
<path d="M2711 183 c0 -7 -8 -10 -16 -7 -16 7 -19 -4 -7 -23 11 -18 35 1 29
23 -3 11 -5 14 -6 7z"/>
<path d="M1182 2230 c0 -92 -21 -177 -62 -240 l-22 -35 6 53 c7 56 -1 125 -14
117 -4 -2 -10 -35 -13 -72 -7 -91 -41 -177 -90 -230 -46 -50 -30 -58 29 -14
82 60 131 131 170 248 21 64 25 91 22 148 -3 39 -10 80 -16 90 -9 16 -11 2
-10 -65z"/>
<path d="M1651 2115 c-2 -11 -4 -27 -6 -35 -2 -8 -6 -31 -9 -50 -5 -30 -4 -29
9 10 9 25 14 56 12 70 -3 19 -5 21 -6 5z"/>
<path d="M490 1919 c-6 -24 -25 -78 -42 -119 -98 -241 -124 -325 -133 -430 -4
-45 -2 -40 10 25 19 100 45 180 105 320 44 104 85 234 75 243 -2 2 -9 -16 -15
-39z"/>
<path d="M1754 1912 c-48 -32 -90 -338 -62 -447 11 -43 17 -50 40 -53 41 -5
50 25 59 193 4 82 10 175 14 205 10 81 -13 128 -51 102z m9 -144 c-14 -250
-19 -293 -28 -288 -25 12 -1 360 25 360 4 0 6 -33 3 -72z"/>
<path d="M478 1797 c-14 -39 -44 -115 -65 -167 -48 -114 -73 -210 -80 -306 -6
-82 4 -184 18 -184 6 0 8 4 5 9 -13 20 -16 134 -7 207 11 87 59 247 93 309 12
22 21 41 20 42 0 2 6 20 15 40 23 56 42 123 35 123 -4 0 -19 -33 -34 -73z"/>
<path d="M633 1850 c-60 -36 -91 -131 -78 -235 5 -45 14 -65 42 -96 44 -48 76
-52 98 -9 8 16 15 42 15 57 0 27 32 191 45 232 4 15 -1 28 -19 46 -30 30 -60
32 -103 5z m80 -15 c12 -5 10 -21 -9 -101 -13 -52 -26 -126 -30 -164 -3 -39
-10 -70 -14 -70 -10 0 -45 41 -61 70 -7 14 -13 54 -13 90 0 116 61 200 127
175z"/>
<path d="M307 1228 c8 -77 24 -148 33 -148 4 0 2 21 -6 47 -8 25 -14 65 -14
89 0 24 -4 45 -9 48 -5 4 -7 -12 -4 -36z"/>
<path d="M1176 1212 c57 -53 134 -76 259 -77 72 0 117 4 130 13 18 11 17 11
-10 5 -16 -5 -73 -8 -125 -7 -102 1 -171 21 -247 70 l-38 25 31 -29z"/>
<path d="M840 921 c0 -5 7 -14 16 -19 20 -11 10 -32 -14 -32 -12 0 -13 -3 -4
-12 7 -7 12 -16 12 -20 0 -14 -34 -4 -42 12 -6 11 -7 11 -5 -4 1 -10 12 -25
25 -34 21 -14 23 -13 46 39 13 30 21 57 18 60 -13 13 -52 20 -52 10z"/>
<path d="M2547 833 c2 -54 12 -131 19 -152 4 -11 7 -11 21 0 14 12 14 10 -1
-13 -12 -18 -16 -37 -12 -52 3 -14 1 -28 -4 -31 -6 -4 -8 -11 -4 -16 3 -5 9
-7 13 -4 5 2 11 -18 15 -46 10 -73 31 -60 30 19 -1 34 2 62 7 62 5 0 9 7 9 16
0 15 -2 15 -24 1 -24 -16 -36 -13 -36 9 0 8 6 11 14 8 19 -7 28 23 15 48 -6
11 -12 35 -14 52 -1 17 -7 45 -13 61 -6 17 -14 42 -17 58 -9 44 -21 31 -18
-20z"/>
<path d="M2362 781 c-14 -44 -15 -156 -2 -186 5 -12 6 5 3 45 -3 37 0 90 6
119 14 64 9 77 -7 22z"/>
<path d="M1280 788 c0 -16 5 -28 11 -28 5 0 7 5 3 12 -5 8 -2 9 9 5 12 -5 17
-1 17 13 0 11 -4 20 -10 20 -5 0 -10 -6 -10 -12 0 -9 -4 -8 -10 2 -8 12 -10 9
-10 -12z"/>
<path d="M1372 790 c-11 -28 -6 -42 8 -21 6 11 9 10 12 -5 4 -18 5 -17 16 4
11 18 10 22 -2 22 -8 0 -16 6 -19 13 -3 7 -9 2 -15 -13z"/>
<path d="M1233 789 c-9 -9 -8 -15 2 -25 19 -19 23 -18 23 11 0 27 -8 31 -25
14z"/>
<path d="M678 740 c-40 -40 -40 -41 -36 -104 5 -75 34 -122 95 -152 58 -28
106 -24 142 10 104 100 30 286 -113 286 -43 0 -53 -4 -88 -40z m157 10 c87
-54 106 -182 37 -247 -23 -21 -34 -24 -74 -21 -85 9 -148 78 -148 164 0 97
103 155 185 104z"/>
<path d="M707 690 c-32 -36 -32 -36 -7 -36 12 0 19 5 16 12 -8 20 30 46 60 42
31 -3 78 -58 57 -65 -20 -7 -15 -19 7 -19 24 0 24 -2 0 45 -31 62 -89 71 -133
21z"/>
<path d="M747 663 c-4 -3 -6 -34 -6 -67 l2 -61 8 65 c8 65 8 75 -4 63z"/>
<path d="M786 638 c-9 -34 -7 -110 2 -104 9 5 17 126 9 126 -3 0 -7 -10 -11
-22z"/>
<path d="M1417 757 c-7 -19 8 -40 23 -35 7 2 15 14 17 26 2 16 -2 22 -16 22
-10 0 -21 -6 -24 -13z"/>
<path d="M1187 753 c-3 -5 -2 -15 3 -22 10 -17 43 -6 38 12 -6 15 -34 22 -41
10z"/>
<path d="M1615 726 c-31 -47 25 -93 77 -65 22 12 22 13 3 17 -11 2 -23 9 -27
15 -9 16 10 37 28 30 8 -3 14 -1 14 5 0 12 -24 22 -56 22 -14 0 -30 -10 -39
-24z"/>
<path d="M960 719 c0 -5 -4 -8 -9 -4 -6 3 -9 -3 -8 -13 0 -10 8 -19 17 -19 13
-1 16 5 12 23 -4 24 -12 33 -12 13z"/>
<path d="M1305 720 c3 -5 0 -7 -7 -5 -8 3 -22 -1 -33 -10 -20 -15 -20 -15 0
-8 18 6 18 5 6 -10 -7 -9 -17 -14 -22 -11 -15 9 -22 -49 -10 -80 7 -17 14 -37
15 -44 1 -8 8 -17 14 -21 24 -14 102 -137 102 -159 0 -29 18 -64 29 -58 14 9
4 54 -18 85 -27 37 -26 45 0 38 13 -3 18 -2 13 3 -5 4 -20 10 -34 12 -21 3
-24 9 -26 41 -1 46 -24 77 -24 33 l0 -29 -20 26 c-26 32 -26 33 12 51 40 20
45 20 51 -4 7 -27 26 -25 37 4 12 34 27 40 39 17 15 -27 14 -50 -4 -68 -8 -8
-13 -19 -10 -24 7 -10 14 -37 22 -81 3 -18 1 -28 -6 -28 -7 0 -9 5 -5 12 4 7
3 8 -4 4 -18 -11 -14 -24 7 -31 19 -6 24 -38 5 -33 -5 2 -8 7 -6 11 1 5 -2 5
-8 2 -8 -5 -6 -13 4 -24 9 -10 16 -24 16 -32 0 -23 17 -42 29 -34 9 5 9 10 1
20 -6 7 -12 82 -14 176 -3 105 -8 165 -15 167 -6 2 -11 15 -11 28 0 38 -45 74
-92 74 -23 0 -37 -4 -33 -10z m80 -52 c14 -21 14 -24 -1 -35 -14 -10 -14 -12
3 -17 10 -3 -1 -3 -25 0 -28 3 -41 1 -37 -6 8 -12 3 -13 -29 0 -31 12 -32 20
-5 54 26 33 71 35 94 4z"/>
<path d="M1736 651 c-8 -12 19 -45 31 -38 6 4 13 16 16 27 4 16 0 20 -18 20
-13 0 -26 -4 -29 -9z"/>
<path d="M1646 625 c-9 -9 -20 -13 -26 -10 -5 3 -10 -1 -10 -9 0 -23 17 -28
34 -10 9 8 16 11 16 5 0 -6 4 -11 10 -11 5 0 8 6 6 13 -1 6 -1 9 1 5 3 -5 14
-8 25 -8 14 0 18 5 14 16 -3 9 -6 18 -6 20 0 2 -4 4 -10 4 -5 0 -7 -8 -3 -17
6 -17 5 -17 -14 0 -19 17 -22 17 -37 2z"/>
<path d="M1902 603 c-13 -15 -22 -38 -22 -56 0 -24 3 -28 10 -17 5 8 10 11 10
6 0 -5 7 -3 15 4 12 10 16 6 23 -22 6 -24 14 -33 28 -31 10 1 22 -4 26 -10 5
-8 8 -7 8 4 0 9 -9 20 -21 25 -19 9 -54 82 -44 93 7 6 35 -20 35 -34 0 -6 7
-12 15 -12 18 0 18 2 5 28 -6 10 -23 25 -38 33 -26 13 -29 12 -50 -11z"/>
<path d="M1561 610 c-14 -3 -26 -11 -29 -18 -5 -17 25 -27 42 -13 7 6 16 8 19
4 9 -9 8 9 -1 23 -4 6 -18 8 -31 4z"/>
<path d="M1790 590 c0 -11 -4 -20 -10 -20 -5 0 -10 6 -10 13 0 9 -3 8 -9 -2
-7 -11 -9 -11 -14 0 -4 10 -6 9 -6 -3 -1 -14 7 -18 39 -16 39 1 51 10 30 23
-6 4 -8 11 -5 16 4 5 1 9 -4 9 -6 0 -11 -9 -11 -20z"/>
<path d="M1673 573 c-6 -14 4 -33 18 -33 5 0 9 10 9 22 0 21 0 21 14 2 14 -18
15 -18 13 3 -1 17 -7 22 -25 20 -14 -1 -26 -7 -29 -14z"/>
<path d="M2083 560 c-32 -13 -43 -41 -43 -115 0 -63 1 -66 22 -60 17 6 20 4
15 -9 -6 -14 -3 -16 13 -11 14 5 20 2 20 -9 0 -10 -9 -16 -25 -16 -17 0 -25 6
-25 17 0 9 -3 14 -6 10 -3 -3 -1 -29 6 -57 l12 -52 44 7 c36 5 44 3 44 -9 0
-9 5 -16 10 -16 16 0 11 27 -6 34 -9 4 -32 3 -52 0 -51 -10 -37 16 19 32 56
17 59 17 59 0 0 -8 -3 -16 -7 -19 -8 -4 7 0 37 10 8 2 5 -4 -8 -15 -12 -12
-18 -23 -13 -26 5 -4 12 -2 16 4 4 6 11 8 16 4 11 -7 5 38 -16 111 -8 28 -21
76 -30 107 -9 35 -24 63 -37 73 -25 17 -33 18 -65 5z m60 -57 c17 -34 41 -132
34 -139 -6 -6 -51 17 -81 41 -24 19 -29 101 -6 115 25 16 39 11 53 -17z m7
-167 c0 -8 -8 -17 -17 -20 -10 -2 -28 -7 -40 -11 -16 -4 -23 -2 -23 8 0 7 17
18 38 24 20 6 38 11 40 12 1 0 2 -5 2 -13z"/>
<path d="M1575 540 c5 -21 4 -22 -5 -7 -15 23 -30 22 -30 -3 0 -17 5 -19 28
-14 15 3 35 6 44 6 15 -1 15 2 5 19 -11 17 -12 17 -18 2 -5 -16 -7 -15 -18 2
-11 18 -11 18 -6 -5z"/>
<path d="M937 524 c-3 -19 -1 -24 10 -20 8 3 21 6 29 6 25 0 16 35 -10 38 -18
1 -25 -4 -29 -24z"/>
<path d="M1355 531 c-3 -5 -1 -13 5 -16 8 -5 7 -11 -1 -21 -21 -25 1 -15 26
12 25 27 36 49 13 26 -14 -14 -42 -16 -33 -2 3 6 4 10 1 10 -3 0 -7 -4 -11 -9z"/>
<path d="M1750 524 c0 -14 -3 -14 -15 -4 -16 13 -20 3 -7 -18 6 -9 16 -10 32
-4 16 6 19 11 12 16 -7 4 -10 12 -7 17 4 5 1 9 -4 9 -6 0 -11 -7 -11 -16z"/>
<path d="M1660 511 c0 -6 -9 -8 -21 -6 -15 3 -19 0 -15 -11 3 -9 6 -18 6 -20
0 -2 7 -4 15 -4 8 0 15 7 15 15 0 8 5 15 11 15 5 0 7 -4 4 -10 -3 -5 -1 -10 4
-10 13 0 13 3 5 24 -7 17 -24 22 -24 7z"/>
<path d="M1580 482 c0 -24 8 -32 26 -25 10 4 11 9 1 24 -15 24 -27 24 -27 1z"/>
<path d="M450 415 c-7 -8 -10 -29 -8 -45 3 -17 1 -33 -4 -36 -4 -3 -8 2 -8 10
0 9 -4 16 -10 16 -5 0 -7 7 -4 15 4 8 1 15 -6 15 -9 0 -11 -10 -6 -31 3 -17 6
-36 6 -41 0 -5 5 -6 11 -3 5 4 29 9 52 11 31 2 37 1 22 -6 -16 -7 -16 -9 -4
-9 38 -2 49 67 17 107 -14 16 -43 15 -58 -3z m54 -3 c2 -4 6 -23 9 -42 2 -19
2 -27 0 -17 -2 9 -9 15 -14 11 -6 -3 -8 6 -4 23 5 27 5 28 -5 3 -6 -13 -16
-28 -23 -33 -8 -6 -6 -7 5 -3 10 3 20 1 23 -3 2 -5 -6 -11 -18 -13 -17 -3 -23
0 -25 16 0 11 7 25 16 32 9 7 14 16 9 20 -4 4 -7 2 -7 -4 0 -7 -4 -12 -10 -12
-5 0 -7 7 -4 15 6 16 39 21 48 7z"/>
<path d="M1729 409 c-15 -15 -33 -22 -50 -21 -15 2 -30 -2 -34 -8 -3 -5 -22
-17 -40 -24 -55 -23 -63 -112 -14 -149 29 -21 49 -18 87 11 25 20 23 32 -19
101 -18 30 -18 36 -6 49 29 28 97 -18 97 -66 0 -20 -4 -23 -23 -18 -18 4 -23
1 -24 -14 -2 -21 30 -29 42 -10 3 5 12 7 19 4 8 -3 17 0 21 6 5 8 11 8 21 -1
19 -16 61 -3 69 21 13 40 14 104 3 117 -6 7 -25 13 -42 13 -17 -1 -43 2 -58 5
-20 5 -32 1 -49 -16z m81 -19 c13 -25 5 -40 -21 -40 -11 0 -19 7 -20 18 -1 16
-2 16 -6 0 -5 -21 -14 -23 -31 -6 -7 7 -8 17 -1 30 14 25 65 24 79 -2z m65
-10 c0 -19 -4 -24 -20 -22 -19 3 -19 3 -1 -10 27 -21 17 -52 -17 -56 -23 -3
-28 0 -25 15 2 10 11 17 21 17 9 -1 17 2 17 7 0 5 -6 9 -14 9 -12 0 -14 29 -7
68 1 2 11 2 24 0 16 -2 22 -10 22 -28z m-241 -46 c11 -11 13 -20 7 -33 -8 -14
-6 -17 12 -17 25 1 35 -28 17 -49 -30 -36 -100 0 -100 50 0 14 9 34 20 45 24
24 24 24 44 4z m164 -20 c-15 -33 -35 -30 -36 4 0 25 3 28 23 24 21 -4 22 -7
13 -28z"/>
<path d="M1340 332 c0 -24 86 -115 189 -201 61 -51 116 -102 122 -113 6 -11
13 -17 16 -14 3 3 -12 25 -34 49 -22 24 -49 68 -60 98 -11 30 -23 61 -26 69
-5 13 -6 12 -6 -1 -1 -9 6 -33 15 -54 8 -20 13 -40 10 -43 -8 -7 -155 127
-193 177 -18 24 -33 38 -33 33z"/>
<path d="M2354 269 c-5 -8 3 -10 24 -7 17 2 29 1 26 -4 -3 -5 0 -24 6 -43 9
-28 8 -46 -6 -92 -34 -116 -35 -125 -12 -121 17 2 26 20 46 88 22 75 24 90 13
130 -7 24 -18 48 -24 52 -18 12 -65 9 -73 -3z m95 -81 c1 -5 -3 -8 -9 -8 -11
0 -29 61 -22 74 5 8 29 -44 31 -66z"/>
<path d="M946 235 c4 -11 14 -39 23 -62 13 -35 14 -47 3 -63 -7 -11 -8 -20 -2
-20 30 0 17 106 -18 148 -12 16 -13 15 -6 -3z"/>
<path d="M2364 201 c4 -6 2 -11 -3 -11 -6 0 -11 -10 -11 -22 0 -17 3 -20 9 -9
7 11 10 10 14 -5 3 -13 5 -11 6 9 0 15 1 30 2 34 0 4 -5 9 -12 12 -7 2 -9 -1
-5 -8z"/>
<path d="M474 81 c-17 -10 -36 -33 -42 -50 -7 -19 -7 -29 -2 -26 6 4 10 12 10
19 0 7 12 23 26 37 44 41 155 24 122 -20 -10 -13 -10 -14 2 -4 11 10 16 9 26
-5 8 -10 14 -12 14 -5 0 7 -10 24 -23 38 -30 36 -91 43 -133 16z"/>
<path d="M990 63 c-17 -5 -58 -22 -79 -32 -8 -4 -16 -14 -18 -22 -3 -8 0 -7 7
4 6 9 18 17 27 17 12 0 13 -3 3 -14 -10 -13 -8 -13 13 -3 14 6 25 16 24 22 -2
9 16 11 74 6 12 0 17 -5 13 -13 -4 -6 -3 -8 4 -4 5 3 12 1 14 -6 3 -8 7 -6 11
5 4 11 0 20 -11 25 -25 13 -65 21 -82 15z"/>
</g>
</svg>
